<svg width="328" height="113" viewBox="0 0 328 113" fill="none" xmlns="http://www.w3.org/2000/svg">
<path d="M81.2094 80.0453L102.435 58.8035L107.972 40.3324L81.2094 67.1156V80.0453Z" fill="white"/>
<path d="M5.537 19.0906L53.5244 67.1156V80.0453L59.9843 73.5804L67.3669 80.9689V93.8986L73.8267 87.4338L87.2447 100.862L90.8991 91.5898L0 0.6194L5.537 19.0906Z" fill="white"/>
<path d="M17.5339 58.8035L39.6819 80.9689L29.0693 91.5898L32.7237 100.862L46.1417 87.4338L53.5243 94.8222L36.9133 111.446H49.833L59.9842 101.287L70.1354 111.446H83.055L11.9968 40.3324L17.5339 58.8035Z" fill="white"/>
<path d="M67.3669 53.2621V66.192L114.431 19.0906L119.968 0.6194L67.3669 53.2621Z" fill="white"/>
<path d="M156.661 33.6913V7.32826H166.291V0.6194H139.996V7.32826H149.674V33.6913H156.661Z" fill="white"/>
<path d="M153.27 73.043C162.616 73.043 169.604 66.6175 169.604 57.1213C169.604 55.8928 169.509 54.2393 169.32 53.2943H153.232V60.0504H162.381C161.295 63.7828 158.038 66.2396 153.788 66.2396C147.841 66.2396 143.733 61.8458 143.733 56.0345C143.733 50.2234 147.841 45.8295 153.27 45.8295C156.716 45.8295 160.02 47.6249 161.059 50.4596H168.989C167.998 44.4122 161.154 39.0262 153.27 39.0262C143.733 39.0262 136.557 46.3492 136.557 56.0345C136.557 65.7198 143.733 73.043 153.27 73.043Z" fill="white"/>
<path d="M188.228 39.4986H182.562L169.486 72.5705H176.898L179.022 67.0428H191.721L193.798 72.5705H201.399L188.228 39.4986ZM181.383 60.9481L185.395 50.4596L189.36 60.9481H181.383Z" fill="white"/>
<path d="M155.88 78.3779H150.216L137.139 111.45H144.551L146.674 105.922H159.374L161.451 111.45H169.051L155.88 78.3779ZM149.035 99.8274L153.048 89.3388L157.014 99.8274H149.035Z" fill="white"/>
<path d="M206.314 78.3778L197.802 99.6383L190.957 78.3778H185.338L178.494 99.6383L169.887 78.3778H162.428L175.519 111.45H181.185L188.076 90.1892L195.017 111.45H200.634L213.631 78.3778H206.314Z" fill="white"/>
<path d="M225.891 78.3779H220.227L207.149 111.45H214.561L216.685 105.922H229.385L231.462 111.45H239.062L225.891 78.3779ZM219.046 99.8274L223.058 89.3389L227.025 99.8274H219.046Z" fill="white"/>
<path d="M241.968 111.45H248.954V98.8353H252.543L260.002 111.45H268.5L259.812 97.7485C263.118 96.1422 265.101 92.8822 265.101 88.5829C265.101 82.9134 260.238 78.3779 254.668 78.3779H241.968V111.45ZM248.954 92.1263V85.134H254.478C256.508 85.134 258.067 86.5986 258.067 88.5829C258.067 90.5672 256.508 92.1263 254.478 92.1263H248.954Z" fill="white"/>
<path d="M282.435 78.3779H271.104V111.45H282.435C291.924 111.45 299.147 104.363 299.147 94.7721C299.147 85.3703 291.924 78.3779 282.435 78.3779ZM278.092 104.741V85.0868H282.907C288.194 85.0868 291.971 89.1498 291.971 94.7721C291.971 100.489 288.147 104.741 282.907 104.741H278.092Z" fill="white"/>
<path d="M314.748 111.922C321.735 111.922 326.88 107.576 326.88 101.717C326.88 89.1027 309.413 93.1186 309.413 87.6381C309.413 85.7009 311.065 84.5199 313.709 84.5199C316.73 84.5199 318.572 86.4096 318.619 88.9136H325.841C325.841 83.1025 322.112 77.9055 313.946 77.9055C307.431 77.9055 302.568 82.0158 302.568 87.6853C302.568 99.7801 319.941 95.8588 319.941 101.717C319.941 103.891 317.816 105.308 314.748 105.308C311.443 105.308 309.13 103.418 309.13 100.489H302.237C302.237 107.103 307.524 111.922 314.748 111.922Z" fill="white"/>
<path d="M245.118 39.4986V72.5705H265.324V65.8616H252.106V58.8694H263.908V52.1604H252.106V46.2075H265.324V39.4986H245.118Z" fill="white"/>
<path d="M192.224 0.6194V13.234H178.156V0.6194H171.17V33.6913H178.156V19.9428H192.224V33.6913H199.211V0.6194H192.224Z" fill="white"/>
<path d="M204.225 72.5705H211.211V53.1525L219.426 72.5705H224.525L232.927 53.1525V72.5705H239.961V39.4986H232.786L222.495 62.271L212.723 39.4986H204.225V72.5705Z" fill="white"/>
<path d="M204.225 0.6194V33.6913H224.43V26.9823H211.211V19.9901H223.013V13.2812H211.211V7.32826H224.43V0.6194H204.225Z" fill="white"/>
</svg>
